<svg width="302" height="51" viewBox="0 0 302 51" fill="none" xmlns="http://www.w3.org/2000/svg">
<circle cx="151" cy="30" r="21" fill="#EDCD92"/>
<path d="M158 28.9C157.999 29.0978 157.94 29.2909 157.829 29.4548C157.719 29.6188 157.562 29.7463 157.379 29.8213C157.196 29.8962 156.995 29.9152 156.801 29.8758C156.607 29.8364 156.429 29.7404 156.29 29.6L151.71 25C151.617 24.9063 151.506 24.8319 151.385 24.7811C151.263 24.7303 151.132 24.7042 151 24.7042C150.868 24.7042 150.737 24.7303 150.615 24.7811C150.494 24.8319 150.383 24.9063 150.29 25L145.71 29.6C145.617 29.6937 145.506 29.7681 145.385 29.8189C145.263 29.8697 145.132 29.8958 145 29.8958C144.868 29.8958 144.737 29.8697 144.615 29.8189C144.494 29.7681 144.383 29.6937 144.29 29.6C144.104 29.4126 143.999 29.1592 143.999 28.895C143.999 28.6308 144.104 28.3774 144.29 28.19L148.88 23.6C149.443 23.0382 150.205 22.7226 151 22.7226C151.795 22.7226 152.558 23.0382 153.12 23.6L157.71 28.19C157.803 28.2834 157.876 28.3943 157.926 28.5161C157.976 28.6379 158.001 28.7684 158 28.9Z" fill="#232323"/>
<path d="M158 35.9C157.999 36.0978 157.94 36.2909 157.829 36.4548C157.719 36.6188 157.562 36.7463 157.379 36.8213C157.196 36.8962 156.995 36.9152 156.801 36.8758C156.607 36.8364 156.429 36.7404 156.29 36.6L151 31.31L145.71 36.6C145.617 36.6937 145.506 36.7681 145.385 36.8189C145.263 36.8697 145.132 36.8958 145 36.8958C144.868 36.8958 144.737 36.8697 144.615 36.8189C144.494 36.7681 144.383 36.6937 144.29 36.6C144.104 36.4126 143.999 36.1592 143.999 35.895C143.999 35.6308 144.104 35.3774 144.29 35.19L150.29 29.19C150.383 29.0963 150.494 29.0219 150.615 28.9711C150.737 28.9203 150.868 28.8942 151 28.8942C151.132 28.8942 151.263 28.9203 151.385 28.9711C151.506 29.0219 151.617 29.0963 151.71 29.19L157.71 35.19C157.803 35.2834 157.876 35.3943 157.926 35.5161C157.976 35.6379 158.001 35.7684 158 35.9Z" fill="#232323"/>
<path d="M175.877 19.4845C178.643 26.0194 184.572 33 193 33H302V30H193C186.373 30 181.223 24.4183 178.639 18.3151C174.083 7.55174 163.423 0 151 0C138.577 0 127.917 7.55174 123.361 18.3151C120.777 24.4183 115.627 30 109 30H0V33H109C117.428 33 123.357 26.0194 126.123 19.4845C130.226 9.79151 139.824 3 151 3C162.176 3 171.774 9.79151 175.877 19.4845Z" fill="url(#paint0_linear_23_254)"/>
<defs>
<linearGradient id="paint0_linear_23_254" x1="302" y1="32.9999" x2="-1.50472e-07" y2="32.9999" gradientUnits="userSpaceOnUse">
<stop stop-color="#EDCD92" stop-opacity="0"/>
<stop offset="0.497917" stop-color="#EDCD92"/>
<stop offset="1" stop-color="#EDCD92" stop-opacity="0"/>
</linearGradient>
</defs>
</svg>
