<svg width="102" height="66" viewBox="0 0 102 66" fill="none" xmlns="http://www.w3.org/2000/svg">
<path d="M9.49725 26.272C9.60392 26.272 9.67858 26.4427 9.72125 26.784C9.78525 27.1253 9.81725 27.9147 9.81725 29.152C9.81725 30.3467 9.78525 31.1253 9.72125 31.488C9.67858 31.8293 9.60392 32 9.49725 32H8.02525C6.04125 32 4.54792 31.456 3.54525 30.368C2.54258 29.2587 2.04125 27.68 2.04125 25.632V11.488H7.48125V25.184C7.48125 25.568 7.55592 25.8453 7.70525 26.016C7.85458 26.1867 8.09992 26.272 8.44125 26.272H9.49725ZM30.012 21.696C31.356 23.1253 32.028 24.6613 32.028 26.304C32.028 27.392 31.772 28.3733 31.26 29.248C30.748 30.1013 30.012 30.7733 29.052 31.264C28.092 31.7547 26.972 32 25.692 32H21.788C20.7427 32 19.9213 31.9787 19.324 31.936C18.7267 31.872 18.1933 31.744 17.724 31.552C17.148 31.744 16.4973 31.872 15.772 31.936C15.068 31.9787 14.236 32 13.276 32H9.5C9.28667 32 9.18 31.0507 9.18 29.152C9.18 27.232 9.28667 26.272 9.5 26.272H11.996C11.8467 26.0587 11.7293 25.7493 11.644 25.344C11.5587 24.9173 11.516 24.4907 11.516 24.064C11.516 22.9333 11.804 21.8773 12.38 20.896C12.9773 19.9147 13.7773 19.136 14.78 18.56C15.804 17.9627 16.9347 17.664 18.172 17.664C18.8333 17.664 19.4413 17.7707 19.996 17.984L23.388 14.592L30.012 21.696ZM25.276 26.272C26.044 26.272 26.428 26.0267 26.428 25.536C26.428 25.216 26.204 24.8213 25.756 24.352L24.092 22.688C24.156 23.008 24.188 23.3173 24.188 23.616C24.188 24.128 24.124 24.6187 23.996 25.088C23.868 25.5573 23.6973 25.952 23.484 26.272H25.276ZM17.788 26.368C18.812 25.8133 19.324 25.088 19.324 24.192C19.324 23.7867 19.1853 23.456 18.908 23.2C18.652 22.9227 18.3 22.784 17.852 22.784C17.404 22.784 17.0413 22.9227 16.764 23.2C16.508 23.456 16.38 23.7867 16.38 24.192C16.38 25.1093 16.8493 25.8347 17.788 26.368ZM41.2415 30.432C41.2415 32.1813 40.8788 33.7387 40.1535 35.104C39.4495 36.4693 38.4362 37.536 37.1135 38.304C35.7908 39.072 34.2442 39.456 32.4735 39.456H29.1135L28.6655 33.728H32.1215C33.3162 33.728 34.2228 33.4507 34.8415 32.896C35.4602 32.3627 35.7695 31.5733 35.7695 30.528V20.32H41.2415V30.432ZM51.9973 26.272C52.1039 26.272 52.1786 26.4427 52.2213 26.784C52.2853 27.1253 52.3173 27.9147 52.3173 29.152C52.3173 30.3467 52.2853 31.1253 52.2213 31.488C52.1786 31.8293 52.1039 32 51.9973 32H50.5253C48.5413 32 47.0479 31.456 46.0453 30.368C45.0426 29.2587 44.5413 27.68 44.5413 25.632V11.488H49.9813V25.184C49.9813 25.568 50.0559 25.8453 50.2053 26.016C50.3546 26.1867 50.5999 26.272 50.9413 26.272H51.9973ZM55.04 26.272C55.7013 26.272 56.032 25.9947 56.032 25.44V20.32H61.472V25.376C61.472 25.9733 61.8133 26.272 62.496 26.272H63.296C63.5093 26.272 63.616 27.232 63.616 29.152C63.616 31.0507 63.5093 32 63.296 32H62.208C60.544 32 59.36 31.584 58.656 30.752C58.2507 31.2 57.76 31.52 57.184 31.712C56.6293 31.904 55.9147 32 55.04 32H52C51.7867 32 51.68 31.0507 51.68 29.152C51.68 27.232 51.7867 26.272 52 26.272H55.04ZM55.776 17.952V13.632H61.344V17.952H55.776ZM66.3213 26.272C66.9826 26.272 67.3133 25.9947 67.3133 25.44V20.32H72.7533V25.376C72.7533 25.9733 73.0946 26.272 73.7773 26.272H74.5773C74.7906 26.272 74.8973 27.232 74.8973 29.152C74.8973 31.0507 74.7906 32 74.5773 32H73.4893C71.8253 32 70.6413 31.584 69.9373 30.752C69.5319 31.2 69.0413 31.52 68.4653 31.712C67.9106 31.904 67.1959 32 66.3213 32H63.2812C63.0679 32 62.9612 31.0507 62.9612 29.152C62.9612 27.232 63.0679 26.272 63.2812 26.272H66.3213ZM70.0013 34.368V38.688H60.5932V34.368H70.0013ZM83.7465 25.696C83.7465 27.6373 83.1705 29.1733 82.0185 30.304C80.8878 31.4347 79.3518 32 77.4105 32H74.5625C74.3492 32 74.2425 31.0507 74.2425 29.152C74.2425 27.232 74.3492 26.272 74.5625 26.272H77.4105C77.7092 26.272 77.9438 26.1973 78.1145 26.048C78.3065 25.8773 78.4025 25.664 78.4025 25.408V20.32H83.7465V25.696ZM74.3385 38.688V34.368H79.9065V38.688H74.3385ZM100.417 30.368C100.417 33.2267 99.6698 35.456 98.1765 37.056C96.6832 38.656 94.6245 39.456 92.0005 39.456H87.3285L86.8805 33.824H92.8325C93.5578 33.824 94.1125 33.6533 94.4965 33.312C94.8805 32.992 95.0725 32.5547 95.0725 32H93.8245C91.4138 32 89.6858 31.4987 88.6405 30.496C87.6165 29.472 87.1045 27.808 87.1045 25.504C87.1045 24.1173 87.3818 22.8907 87.9365 21.824C88.4912 20.736 89.2698 19.8827 90.2725 19.264C91.2752 18.6453 92.4272 18.336 93.7285 18.336C95.8405 18.336 97.4832 18.9867 98.6565 20.288C99.8298 21.5893 100.417 23.424 100.417 25.792V30.368ZM92.3205 25.216C92.3205 25.728 92.4378 26.0907 92.6725 26.304C92.9072 26.5173 93.3125 26.624 93.8885 26.624H95.2005V25.44C95.2005 24.2027 94.6992 23.584 93.6965 23.584C93.2485 23.584 92.9072 23.7333 92.6725 24.032C92.4378 24.3307 92.3205 24.7253 92.3205 25.216Z" fill="#232323"/>
<path d="M101.812 55.5556C101.937 55.6852 102 55.8426 102 56.0278C102 56.213 101.937 56.3611 101.812 56.4722C101.687 56.6019 101.536 56.6667 101.357 56.6667C101.357 56.8519 101.295 57.0093 101.17 57.1389C101.062 57.2685 100.92 57.3333 100.741 57.3333C100.652 57.3333 100.589 57.3241 100.554 57.3056L98.9196 59C98.1518 59.7963 97.2143 60.1944 96.1071 60.1944C95.375 60.1944 94.7054 60.0093 94.0982 59.6389C94.0446 60.6759 93.6607 61.5648 92.9464 62.3056L91.3661 63.9444C91.4018 64.0556 91.4196 64.1389 91.4196 64.1944C91.4196 64.3611 91.3482 64.5185 91.2054 64.6667C91.0625 64.8148 90.9286 64.8796 90.8036 64.8611C90.8036 65.0463 90.7411 65.1944 90.6161 65.3056C90.4911 65.4352 90.3393 65.5 90.1607 65.5C89.9821 65.5 89.8304 65.4352 89.7054 65.3056C89.5804 65.1944 89.5179 65.0463 89.5179 64.8611C89.3393 64.8611 89.1875 64.7963 89.0625 64.6667C88.9554 64.537 88.9018 64.3796 88.9018 64.1944C88.9018 64.1019 88.9107 64.037 88.9286 64L87.2946 62.3056C86.5446 61.5278 86.1518 60.5926 86.1161 59.5C85.4375 59.963 84.6964 60.1944 83.8929 60.1944C82.7857 60.1944 81.8482 59.7963 81.0804 59L79.4464 57.3056C79.4107 57.3241 79.3571 57.3333 79.2857 57.3333C79.1071 57.3333 78.9554 57.2685 78.8304 57.1389C78.7054 57.0093 78.6429 56.8519 78.6429 56.6667C78.4643 56.6667 78.3125 56.6019 78.1875 56.4722C78.0625 56.3611 78 56.213 78 56.0278C78 55.8426 78.0625 55.6852 78.1875 55.5556C78.3125 55.4259 78.4643 55.3611 78.6429 55.3611C78.625 55.2315 78.6875 55.0926 78.8304 54.9444C78.9732 54.7963 79.125 54.7222 79.2857 54.7222C79.375 54.7222 79.4464 54.7315 79.5 54.75L81.0804 53.1389C81.8661 52.3241 82.8036 51.9167 83.8929 51.9167C84.6786 51.9167 85.4196 52.1574 86.1161 52.6389L86.1161 52.6111C86.1161 51.4815 86.5089 50.5093 87.2946 49.6944L88.9286 48C88.9107 47.963 88.9018 47.8981 88.9018 47.8056C88.9018 47.6204 88.9554 47.463 89.0625 47.3333C89.1875 47.2222 89.3393 47.1667 89.5179 47.1667C89.5179 46.9815 89.5804 46.8241 89.7054 46.6944C89.8304 46.5648 89.9821 46.5 90.1607 46.5C90.3393 46.5 90.4911 46.5648 90.6161 46.6944C90.7411 46.8241 90.8036 46.9815 90.8036 47.1667C90.9286 47.1481 91.0625 47.2037 91.2054 47.3333C91.3482 47.4815 91.4196 47.6389 91.4196 47.8056C91.4196 47.8611 91.4018 47.9444 91.3661 48.0556L92.9464 49.6944C93.6786 50.4537 94.0625 51.3796 94.0982 52.4722C94.7054 52.1019 95.375 51.9167 96.1071 51.9167C97.1964 51.9167 98.1339 52.3241 98.9196 53.1389L100.5 54.75C100.554 54.7315 100.634 54.7222 100.741 54.7222C100.902 54.7222 101.045 54.7963 101.17 54.9444C101.312 55.0926 101.375 55.2315 101.357 55.3611C101.536 55.3611 101.687 55.4259 101.812 55.5556ZM99.6161 56.0556C99.6161 56 99.5893 55.9444 99.5357 55.8889L97.9018 54.1944C97.4018 53.6759 96.8036 53.4167 96.1071 53.4167C95.4107 53.4167 94.8125 53.6759 94.3125 54.1944C93.8125 54.713 93.5625 55.3333 93.5625 56.0556C93.5625 56.7778 93.8125 57.3981 94.3125 57.9167C94.8125 58.4537 95.4107 58.7222 96.1071 58.7222C96.8036 58.7222 97.4018 58.463 97.9018 57.9444L99.5357 56.25C99.5893 56.1944 99.6161 56.1296 99.6161 56.0556ZM99 56.0556L97.5536 57.5833C97.1607 57.9907 96.6786 58.1944 96.1071 58.1944C95.5536 58.1944 95.0714 57.9815 94.6607 57.5556C94.2679 57.1481 94.0714 56.6481 94.0714 56.0556C94.0714 55.463 94.2679 54.963 94.6607 54.5556C95.0714 54.1481 95.5536 53.9444 96.1071 53.9444C96.6786 53.9444 97.1607 54.1481 97.5536 54.5556L99 56.0556ZM96.9643 56.0556L96.5357 55.6111C96.4286 55.5 96.2857 55.4444 96.1071 55.4444C95.9464 55.4444 95.8036 55.5 95.6786 55.6111C95.5536 55.7407 95.4911 55.8889 95.4911 56.0556C95.4911 56.2222 95.5536 56.3704 95.6786 56.5C95.8036 56.6296 95.9464 56.6944 96.1071 56.6944C96.2679 56.6944 96.4107 56.6296 96.5357 56.5L96.9643 56.0556ZM91.9018 54.4722C92.4196 53.9537 92.6786 53.3333 92.6786 52.6111C92.6786 51.8889 92.4286 51.2685 91.9286 50.75L90.2946 49.0556C90.1875 48.9444 90.0714 48.9444 89.9464 49.0556L88.3125 50.75C87.8125 51.2685 87.5625 51.8889 87.5625 52.6111C87.5625 53.3333 87.8125 53.9537 88.3125 54.4722C88.8125 54.9907 89.4107 55.25 90.1071 55.25C90.8036 55.25 91.4018 54.9907 91.9018 54.4722ZM91.9286 61.25C92.4286 60.7315 92.6786 60.1111 92.6786 59.3889C92.6786 58.6667 92.4196 58.0463 91.9018 57.5278C91.4018 57.0093 90.8036 56.75 90.1071 56.75C89.4107 56.75 88.8125 57.0093 88.3125 57.5278C87.8125 58.0463 87.5625 58.6667 87.5625 59.3889C87.5625 60.1111 87.8125 60.7315 88.3125 61.25L89.9464 62.9444C90.0714 63.0556 90.1875 63.0556 90.2946 62.9444L91.9286 61.25ZM91.5804 51.1389C91.9732 51.5463 92.1696 52.037 92.1696 52.6111C92.1696 53.1852 91.9643 53.6759 91.5536 54.0833C91.1607 54.5093 90.6786 54.7222 90.1071 54.7222C89.5536 54.7222 89.0714 54.5185 88.6607 54.1111C88.2679 53.7037 88.0714 53.2037 88.0714 52.6111C88.0714 52.037 88.2679 51.5463 88.6607 51.1389L90.1071 49.6111L91.5804 51.1389ZM92.1696 59.3889C92.1696 59.9815 91.9732 60.4815 91.5804 60.8889L90.1071 62.3889L88.6607 60.8889C88.2679 60.4815 88.0714 59.9815 88.0714 59.3889C88.0714 58.7963 88.2679 58.2963 88.6607 57.8889C89.0714 57.4815 89.5536 57.2778 90.1071 57.2778C90.6786 57.2778 91.1607 57.4815 91.5536 57.8889C91.9643 58.3148 92.1696 58.8148 92.1696 59.3889ZM90.5357 53.0556C90.6607 52.9259 90.7232 52.7778 90.7232 52.6111C90.7232 52.4444 90.6696 52.3056 90.5625 52.1944L90.1071 51.7222L89.6786 52.1944C89.5714 52.3056 89.5179 52.4444 89.5179 52.6111C89.5179 52.7778 89.5714 52.9259 89.6786 53.0556C89.8036 53.1852 89.9464 53.25 90.1071 53.25C90.2679 53.25 90.4107 53.1852 90.5357 53.0556ZM90.7232 59.3889C90.7232 59.2222 90.6607 59.0741 90.5357 58.9444C90.4107 58.8333 90.2679 58.7778 90.1071 58.7778C89.9464 58.7778 89.8036 58.8333 89.6786 58.9444C89.5714 59.0741 89.5179 59.2222 89.5179 59.3889C89.5179 59.5741 89.5714 59.7222 89.6786 59.8333L90.1071 60.2778L90.5625 59.8333C90.6696 59.7222 90.7232 59.5741 90.7232 59.3889ZM85.6875 57.9167C86.1875 57.3981 86.4375 56.7778 86.4375 56.0556C86.4375 55.3333 86.1875 54.713 85.6875 54.1944C85.1875 53.6759 84.5893 53.4167 83.8929 53.4167C83.1964 53.4167 82.5982 53.6759 82.0982 54.1944L80.4643 55.8889C80.3393 56 80.3393 56.1204 80.4643 56.25L82.0982 57.9444C82.5982 58.463 83.1964 58.7222 83.8929 58.7222C84.5893 58.7222 85.1875 58.4537 85.6875 57.9167ZM85.3125 54.5556C85.7232 54.963 85.9286 55.463 85.9286 56.0556C85.9286 56.6481 85.7232 57.1481 85.3125 57.5556C84.9196 57.9815 84.4464 58.1944 83.8929 58.1944C83.3393 58.1944 82.8661 57.9907 82.4732 57.5833L81 56.0556L82.4732 54.5556C82.8661 54.1481 83.3393 53.9444 83.8929 53.9444C84.4464 53.9444 84.9196 54.1481 85.3125 54.5556ZM84.3214 56.5C84.4464 56.3704 84.5089 56.2222 84.5089 56.0556C84.5089 55.8889 84.4464 55.7407 84.3214 55.6111C84.1964 55.5 84.0536 55.4444 83.8929 55.4444C83.7321 55.4444 83.5982 55.5 83.4911 55.6111L83.0357 56.0556L83.4911 56.5C83.6161 56.6296 83.75 56.6944 83.8929 56.6944C84.0536 56.6944 84.1964 56.6296 84.3214 56.5Z" fill="#EDCD92"/>
<line x1="75" y1="56" x2="1" y2="56" stroke="#EDCD92" stroke-width="2" stroke-linecap="round"/>
</svg>
