<svg width="270" height="120" viewBox="0 0 270 120" fill="none" xmlns="http://www.w3.org/2000/svg">
<path d="M230.927 0C230.611 2.35918 229.047 4.37465 227.291 5.8921C225.056 7.45397 222.812 9.00649 220.565 10.5497C213.255 16.084 204.806 19.8671 197.441 25.322C196.195 26.2713 194.858 27.099 193.67 28.1231C193.343 28.399 192.978 28.6281 192.607 28.8315C192.819 27.6251 193.371 26.5051 194.028 25.481C194.888 24.1529 196.235 23.2785 197.446 22.3081C203.087 17.9195 209.414 14.5525 215.516 10.8723C218.199 9.36189 220.589 7.4002 223.184 5.74713C224.769 4.66224 226.457 3.72465 227.962 2.52519C228.916 1.64605 229.861 0.748203 230.927 0Z" fill="#232323"/>
<path d="M85.4169 15.081C85.9944 14.0101 86.0902 12.5582 87.182 11.845C87.0394 14.2136 86.6326 16.5657 86.504 18.9413C86.0622 23.1476 86.0388 27.41 85.099 31.5508C84.3485 34.2818 83.577 37.0805 81.9872 39.4607C81.169 40.6228 80.0398 41.7498 78.5622 41.9251C77.6832 41.9976 76.6662 41.9438 76.0023 41.2892C75.9228 41.2728 75.7661 41.2401 75.6866 41.2237C74.9245 42.8276 74.2979 44.635 72.8321 45.7456C71.406 46.5757 69.7531 45.8088 68.2311 45.8345C67.7448 45.8181 67.4246 46.2156 67.1253 46.5336C66.1668 47.6723 65.7506 49.15 64.8295 50.3167C63.9247 51.7219 62.5781 52.7858 61.7716 54.2588C60.785 56.2018 59.9059 58.2126 58.6879 60.027C57.8836 61.1773 56.8082 62.2061 55.471 62.6924C52.7941 63.609 50.0891 64.4881 47.2837 64.8996C46.9026 64.9745 46.5215 64.9464 46.1451 64.8809C46.3158 64.5209 46.5122 64.1561 46.8745 63.9527C49.7011 62.0986 53.0045 61.0557 55.672 58.9444C56.9321 58.0302 58.3208 57.0926 58.8889 55.5658C57.4207 55.6102 55.7141 55.7388 54.5779 54.6118C53.4978 53.8309 53.4393 52.2667 54.0215 51.1631C54.6807 49.9286 55.2699 48.659 55.7796 47.3566C56.1326 46.6178 56.5861 45.7059 57.4862 45.5586C58.8469 45.5072 59.9714 46.4728 60.7756 47.4735C61.2829 48.0393 61.6266 48.7408 62.1924 49.2528C63.539 49.0494 64.3619 47.8079 64.9955 46.7183C66.0616 44.8361 66.8027 42.5424 68.7712 41.3874C70.209 40.6742 71.7356 41.8269 73.2108 41.4528C73.7602 41.0437 74.0642 40.3749 74.4125 39.7951C73.9847 37.2138 74.1998 34.4758 75.4038 32.1213C75.4739 31.9086 75.6048 31.8454 75.7942 31.9343C76.1519 32.9397 76.1168 34.2373 77.0847 34.9084C78.436 35.8834 80.3624 35.6309 81.6553 34.6769C82.1977 34.3613 82.4642 33.7533 82.5974 33.1665C83.0299 30.6156 82.7284 28.0202 82.9621 25.453C83.2123 21.9107 83.5303 18.186 85.4169 15.081Z" fill="#232323"/>
<path d="M65.1568 16.0302C66.3117 15.455 67.2983 14.5478 68.5397 14.155C68.6753 14.8354 68.0278 15.275 67.6701 15.7543C64.8319 19.514 60.2683 21.3799 55.8661 22.6167C54.6948 22.8833 53.5983 23.5356 52.3873 23.566C52.925 22.771 53.8415 22.3993 54.606 21.8662C58.0801 19.846 61.6079 17.9194 65.1568 16.0302Z" fill="#232323"/>
<path d="M144.392 15.5603C145.638 14.4263 147.436 14.2229 149.047 14.3936C149.155 14.4847 149.37 14.6648 149.477 14.756C149.966 16.2454 149.77 17.8657 149.346 19.3457C149.148 19.9069 148.89 20.5078 148.404 20.8725C147.125 20.9684 145.755 20.9333 144.624 21.6277C143.448 22.4718 143.011 23.9261 142.634 25.2518C142.118 26.961 141.966 28.7497 141.51 30.4682C141.136 30.7745 140.687 30.8096 140.236 30.688C140.177 28.3943 140.593 25.986 139.644 23.8116C139.181 23.1452 138.742 21.9831 137.732 22.2193C136.31 22.4297 134.321 21.899 134.101 20.2412C134.038 18.5367 133.783 16.6896 134.59 15.1114C135.826 14.4169 137.397 14.7489 138.51 15.5369C140.329 16.6499 141.103 18.7822 141.641 20.7392C142.022 18.7963 142.98 16.9538 144.392 15.5603Z" fill="#232323"/>
<path d="M121.418 16.208C122.37 15.7567 123.274 15.2049 124.249 14.7981C124.586 15.5322 123.976 16.1378 123.578 16.692C122.793 17.7792 121.72 18.6373 120.588 19.3411C114.916 22.1585 108.899 24.174 102.967 26.3531C102.974 26.4303 102.988 26.5846 102.995 26.6618C104.461 27.6181 105.301 29.4769 104.92 31.2048C104.454 33.7346 102.46 36.1172 99.8744 36.6035C99.8931 36.054 100.466 35.8553 100.831 35.563C102.105 34.7307 102.799 33.0495 102.266 31.5812C101.876 30.2344 100.478 29.6733 99.2806 29.2407C99.0795 28.8035 99.1497 28.2821 99.4863 27.929C100.344 26.9283 101.156 25.8481 102.215 25.0508C104.01 24.0898 105.787 23.0774 107.676 22.3058C110.329 21.1765 112.967 20.0098 115.613 18.8594C117.549 17.9803 119.536 17.2063 121.418 16.208Z" fill="#232323"/>
<path d="M72.7012 17.4915C73.1898 16.6334 73.7041 15.7894 74.3517 15.0388C74.9151 14.9336 75.343 15.3521 75.7848 15.6234C76.9281 16.3903 78.0783 17.2227 78.8662 18.373C79.3291 19.0745 79.3969 20.005 78.9994 20.7532C78.27 22.2005 77.1829 23.4491 75.9952 24.541C75.7357 24.8193 75.336 24.7304 75.0087 24.6766C73.7158 23.234 72.0793 22.1655 70.548 20.9987C71.1745 19.7736 72.0162 18.6793 72.7012 17.4915Z" fill="#232323"/>
<path d="M165.719 19.0931C166.324 17.7066 166.637 16.1821 167.533 14.9359C167.818 16.907 167.175 18.8359 167.023 20.7906C166.312 25.2822 165.604 29.7994 165.553 34.3588C165.585 35.9324 165.868 37.6018 166.827 38.8924C167.926 39.6196 169.452 39.8651 170.67 39.2736C171.416 38.8106 171.86 38.0016 172.122 37.1856C172.356 36.4725 172.634 35.6588 173.366 35.3104C173.2 37.2955 172.625 39.2104 172.085 41.116C171.353 42.7831 170.712 44.6092 169.293 45.8344C168.452 46.5896 167.409 47.3471 166.207 47.1367C164.122 46.9169 162.885 44.7144 162.742 42.7971C162.35 35.9651 163.612 29.1939 164.342 22.4273C164.554 21.2255 165.272 20.2084 165.719 19.0931Z" fill="#232323"/>
<path d="M43.0147 15.9694C43.7885 15.9975 44.2935 16.6709 44.8873 17.0824C45.9347 17.9989 47.1504 18.9295 47.5362 20.3324C47.8214 21.5646 46.9213 22.6074 46.1872 23.4818C45.4344 24.2721 44.719 25.1302 43.7885 25.7194C45.0066 26.4559 46.0984 27.3959 47.0826 28.4176C47.6835 29.1518 48.2773 30.0894 48.0435 31.0808C47.7068 32.2639 46.7974 33.1547 45.9838 34.0338C45.3596 34.6464 44.7564 35.3198 43.9428 35.6822C43.6506 35.4718 43.3724 35.245 43.1363 34.9761C42.0118 33.7088 40.6698 32.6637 39.384 31.5718C39.4027 31.4829 39.4377 31.3052 39.4541 31.2164C40.0713 30.2975 40.761 29.4301 41.4086 28.5322C42.0492 27.6367 42.5822 26.6336 43.4566 25.9369C42.6921 25.4014 42.1918 24.5925 41.4717 24.0079C40.595 23.2808 39.7884 22.4741 38.872 21.7984C39.0333 21.0408 39.6715 20.5171 40.0643 19.8788C41.0789 18.5998 41.8785 17.1548 43.0147 15.9694Z" fill="#232323"/>
<path d="M170.579 19.4556C171.098 18.2561 171.874 17.1829 172.597 16.1004C172.884 15.7192 173.172 16.3108 173.263 16.5469C174.544 19.0488 174.497 22.1047 173.378 24.6556C172.814 25.8995 172.379 27.2486 171.449 28.2797C171.208 27.0989 172.008 26.0795 172.185 24.9525C172.389 23.6596 172.377 22.2684 171.792 21.0712C171.507 20.4493 171.005 19.9746 170.579 19.4556Z" fill="#232323"/>
<path d="M219.579 23.1404C223.347 20.8725 227.315 18.9575 231.093 16.7036C231.098 16.8181 231.109 17.0473 231.114 17.1618C229.929 18.6185 228.575 19.9653 226.915 20.8771C224.449 22.4507 221.578 23.1475 218.856 24.1365C218.609 24.2183 218.356 24.2628 218.099 24.2674C218.431 23.718 219.078 23.5029 219.579 23.1404Z" fill="#232323"/>
<path d="M182.247 24.5574C182.615 23.0025 183.463 21.4102 184.955 20.6807C185.752 20.2575 186.732 20.6433 187.251 21.3237C187.812 22.0275 187.903 22.9698 187.858 23.8396C187.774 25.6516 186.816 27.2603 185.895 28.7684C184.284 31.048 181.878 33.0705 179.019 33.3792C181.406 31.8664 183.907 30.239 185.34 27.7209C185.644 27.2883 185.572 26.7365 185.553 26.2385C185.455 26.3694 185.369 26.505 185.296 26.6477C184.363 26.7599 183.288 26.8862 182.493 26.2736C182.002 25.848 182.091 25.1185 182.247 24.5574ZM183.702 23.082C183.166 23.573 183.25 24.3586 183.377 25.004C184.078 25.5815 185.006 25.3453 185.841 25.364C186.07 24.4171 185.743 23.4351 185.02 22.7897C184.571 22.8131 184.013 22.6565 183.702 23.082Z" fill="#232323"/>
<path d="M211.983 26.7622C212.67 24.9151 213.257 23.0165 214.171 21.2629C214.26 22.5419 213.989 23.8045 213.851 25.0694C213.496 28.0786 213.023 31.1065 213.21 34.146C213.348 35.3338 213.421 36.6502 214.227 37.6088C215.111 38.6142 216.49 38.9696 217.786 38.9673C219.069 36.3486 219.901 33.5288 221.274 30.9498C222.143 29.4908 223.209 28.0178 224.788 27.2719C226.148 26.6734 227.81 26.6313 229.129 27.3655C229.77 27.805 230.375 28.586 230.181 29.409C229.975 30.0239 229.375 30.6669 228.666 30.4682C227.427 30.2624 226.169 29.9047 224.911 30.1852C223.392 30.4354 222.33 31.7191 221.624 32.9933C221.11 33.9543 220.886 35.3104 221.727 36.1615C223.843 38.2401 227.874 37.5363 229.204 34.8919C229.837 33.8374 230.034 32.3714 231.191 31.7331C231.175 33.1664 230.261 34.3495 229.758 35.6378C227.939 39.5097 225.512 43.4401 221.61 45.4907C219.181 46.8141 216.212 47.2513 213.559 46.3745C212.46 45.9957 211.595 45.175 210.875 44.2935C210.15 45.5187 209.297 46.7065 208.139 47.5576C207.583 47.9481 206.943 48.3245 206.239 48.2614C205.18 48.1865 204.093 47.6488 203.048 48.0977C201.063 48.8763 199.919 50.7959 198.907 52.5565C197.921 54.2072 196.343 55.7691 194.311 55.8533C192.216 56.0848 190.185 54.8572 189.161 53.0639C188.684 54.4738 188.08 55.8346 187.629 57.2515C189.471 57.6466 191.48 58.0301 192.873 59.4049C193.633 60.3869 193.112 61.694 192.712 62.7181C191.887 64.4062 190.834 66.2533 188.952 66.9057C186.958 67.565 184.814 67.5112 182.78 68.0116C180.74 68.4044 178.787 69.169 176.94 70.1066C175.687 70.8968 174.411 71.7807 173.635 73.0783C172.819 74.2825 172.384 75.6853 171.951 77.0602C173.543 77.2098 175.143 77.2846 176.742 77.2145C184.957 77.2589 193.217 76.4382 201.18 74.3713C204.888 73.3098 208.57 72.1314 212.175 70.7519C217.601 68.3623 222.964 65.7366 227.817 62.3019C229.372 61.1655 231.037 60.0011 231.909 58.2218C232.942 56.522 233.019 54.4948 233.529 52.6197C234.025 50.8824 234.399 49.0961 235.205 47.4664C235.727 46.2085 236.652 45.1937 237.375 44.0551C237.896 43.2835 238.387 42.409 239.266 41.9928C238.406 45.1142 237.438 48.2052 236.447 51.2869C235.219 54.9367 233.929 58.6099 231.895 61.902C230.707 63.8544 229.01 65.4186 227.334 66.9407C224.841 69.0988 222.115 70.9787 219.301 72.6925C216.35 74.5771 213.332 76.3727 210.141 77.8177C206.667 79.1785 203.277 80.8176 199.634 81.6967C191.578 83.8805 183.232 84.9607 174.888 84.9514C173.382 84.9935 171.879 85.0566 170.376 84.949C170.135 86.9622 169.959 88.9846 169.684 90.9954C169.511 93.7077 169.111 96.4059 169.123 99.1275C168.732 105.672 168.498 112.226 168.286 118.78C168.267 119.191 168.288 119.642 168.038 120C167.895 119.369 167.776 118.728 167.746 118.083C167.598 113.093 167.142 108.106 167.332 103.109C167.46 99.0644 167.544 95.0077 168.021 90.9838C168.206 88.9426 168.409 86.9014 168.767 84.8812C165.085 84.6474 161.368 84.2219 157.887 82.9429C156.044 82.2415 154.13 81.5774 152.596 80.3008C151.761 79.6017 151.004 78.8208 150.197 78.0936C148.622 81.3834 147.497 85.0893 144.668 87.5771C143.612 88.655 142.005 89.0899 140.542 88.7462C139.691 88.6152 139.088 87.9325 138.58 87.2918C137.503 85.9006 137.028 83.9226 137.734 82.2602C138.393 80.8199 139.144 79.4006 139.544 77.8575C140.49 73.3168 140.706 68.6709 141.005 64.0555C141.175 61.3619 142.272 58.8765 143.223 56.3911C143.761 55.0864 144.093 53.6274 145.157 52.6197C145.236 54.4083 144.841 56.1689 144.603 57.9319C143.899 62.4936 144.049 67.1418 143.289 71.6965C142.602 75.3393 141.372 78.9237 139.354 82.0521C139.17 82.3397 139.074 82.6694 138.968 82.992C139.476 83.0972 139.988 83.2282 140.512 83.2422C143.123 83.1066 145.793 81.9399 147.277 79.714C148.411 78.1731 148.596 76.2208 148.83 74.3853C149.517 68.7878 149.293 63.0875 150.492 57.5554C150.85 55.8486 151.652 54.2844 152.278 52.6687C152.633 51.8644 152.921 50.9128 153.767 50.4849C153.627 52.3812 153.183 54.2353 152.881 56.1081C152.505 59.8398 151.843 63.5855 152.206 67.3452C152.402 69.3279 153.274 71.3808 154.983 72.5102C156.47 73.5156 158.088 74.3316 159.752 74.9979C163.271 76.1693 166.988 76.5996 170.67 76.8895C171.285 74.5046 172.531 72.3558 173.782 70.2585C175.739 67.2657 178.444 64.7873 181.525 62.9776C182.152 62.5357 182.963 62.3065 183.444 61.6846C185.121 58.7596 186.93 55.8439 187.87 52.5752C189.343 47.5716 188.055 42.2664 189.303 37.223C189.881 34.4196 191.092 31.8173 192.172 29.1845C192.284 29.1471 192.513 29.0723 192.625 29.0325C192.261 32.0534 191.868 35.079 191.872 38.1279C191.887 40.777 191.23 43.6459 192.548 46.1009C193.97 48.4087 197.226 48.7851 199.566 47.7914C201.558 47.0245 202.365 44.7144 204.308 43.8797C205.598 43.3115 206.985 44.041 208.315 43.8142C208.983 43.6973 209.425 43.1175 209.636 42.5096C210.335 40.4777 210.382 38.3103 210.636 36.1966C210.933 33.0378 210.863 29.7784 211.983 26.7622Z" fill="#232323"/>
<path d="M94.0273 23.1545C94.2237 22.6728 94.5697 22.2777 94.9859 21.9714C94.9718 22.3712 94.9298 22.771 94.8409 23.1615C93.347 28.7964 93.7772 34.7423 92.309 40.3842C91.6661 42.6779 90.78 44.9178 89.5339 46.9543C89.0289 47.595 88.4679 48.252 87.7244 48.6191C88.2668 47.2209 89.0079 45.8928 89.3586 44.4221C90.5018 39.5916 90.1885 34.5482 91.3809 29.727C91.8812 27.4005 93.0361 25.2939 94.0273 23.1545Z" fill="#232323"/>
<path d="M207.733 25.315C207.96 25.1373 208.233 25.0578 208.521 25.0438C208.495 25.8107 207.875 26.3461 207.508 26.9681C205.734 29.4254 202.755 30.5641 199.894 31.172C199.043 31.3006 198.239 31.8057 197.367 31.6701C198.627 30.4215 200.273 29.6826 201.769 28.7638C203.726 27.5573 205.853 26.6454 207.733 25.315Z" fill="#232323"/>
<path d="M116.894 26.6383C117.144 26.152 117.317 25.6002 117.727 25.2167C117.867 26.0515 117.633 26.8838 117.558 27.7115C117.182 31.1579 116.953 34.6254 117.03 38.0929C117.079 39.3671 117.224 40.7911 118.185 41.7357C119.115 42.6148 120.52 42.5564 121.701 42.3903C121.703 42.3038 121.706 42.1308 121.708 42.0443C121.593 41.9625 121.362 41.7988 121.247 41.717C120.869 40.7256 121.196 39.6594 121.519 38.7031C122.11 37.181 123.087 35.8506 124.004 34.5132C124.205 34.0128 124.125 33.4423 124.254 32.9209C124.45 31.6747 125.304 30.6903 126.059 29.7317C126.713 30.6038 127.221 31.663 128.235 32.1844C129.858 33.2576 131.829 33.5288 133.575 34.3238C134.704 34.8054 135.515 35.9231 135.623 37.1436C135.642 38.7054 134.861 40.1644 133.898 41.3452C133.294 41.9765 132.565 42.6896 131.621 42.6265C130.272 42.6078 128.883 42.0747 127.557 42.4745C126.18 44.7332 124.488 46.931 122.115 48.21C120.495 49.1101 118.479 49.6082 116.691 48.9208C116.438 54.5276 116.399 60.1836 115.267 65.7039C114.617 68.671 113.605 71.5422 112.487 74.3597C110.944 78.2597 108.609 81.851 105.588 84.7667C104.335 86.1205 102.748 87.0978 101.142 87.9723C98.8177 89.2419 96.1408 89.7306 93.513 89.7095C91.1611 89.6254 88.6292 89.2325 86.822 87.5888C84.6267 85.7931 83.6191 82.9453 83.4578 80.184C83.2404 75.5147 84.3252 70.8384 86.3194 66.6274C86.7449 65.6221 87.3644 64.7008 87.7104 63.6627C86.2866 63.7609 84.6151 63.4944 83.4601 64.5231C82.0691 66.1411 81.4472 68.3226 79.8388 69.7722C76.6616 72.3465 72.7059 73.712 68.7502 74.5444C64.2825 75.641 59.7026 76.153 55.139 76.6627C50.0331 77.0766 44.885 77.3618 39.7791 76.7773C36.9105 76.4172 33.8479 76.4009 31.2949 74.867C29.6654 74.037 28.8682 72.1267 28.8565 70.3731C28.8775 68.5284 29.6724 66.8052 29.8291 64.9767C29.9927 63.8591 30.0862 62.5848 30.9232 61.7431C31.4305 63.2114 31.2809 65.0258 32.5083 66.1622C34.7947 68.1332 37.9135 68.5307 40.7937 68.9305C44.7214 69.321 48.6631 69.6553 52.6117 69.6249C55.1086 69.6717 57.5961 69.4543 60.086 69.3023C66.3702 68.8346 72.7339 67.897 78.5389 65.3298C80.0468 64.6517 81.5922 63.8685 82.6185 62.524C83.5536 61.2404 84.4304 59.7744 85.8986 59.0425C87.5281 58.3879 89.2908 59.26 90.9694 58.9514C91.3552 58.776 91.8485 58.4791 91.8157 57.9904C91.617 55.1963 92.4516 52.4186 93.6533 49.9238C93.9152 49.524 94.1419 48.7851 94.7545 48.9254C94.8339 50.2535 94.2612 51.7616 95.1122 52.9424C95.8276 53.8449 97.1578 53.9477 98.1865 53.6017C98.965 53.3118 99.2806 52.2549 100.185 52.2409C100.183 53.8098 99.6149 55.3085 99.0024 56.7278C98.2099 58.3645 96.8726 60.0292 94.9579 60.2701C93.9923 60.4431 93.1483 59.8539 92.461 59.26C91.437 60.8312 90.5556 62.842 88.6666 63.5107C87.1493 66.8589 85.6694 70.3708 85.6718 74.1118C85.5315 76.7446 87.1937 79.3048 89.5854 80.3663C91.8602 81.5938 94.5253 81.5518 97.0339 81.4372C100.992 81.2689 104.952 79.742 107.76 76.9035C109.724 75.1312 111.043 72.7604 112.031 70.3357C113.621 66.106 113.939 61.5256 113.888 57.0458C113.785 52.4467 113.885 47.8476 113.906 43.2484C114.082 40.5947 113.986 37.9222 114.332 35.2777C114.806 32.3013 115.728 29.4114 116.894 26.6383ZM122.842 39.2245C123.84 40.1364 125.43 40.5783 126.671 39.9049C127.48 39.5191 128.455 38.8925 128.334 37.8567C128.13 36.3042 126.346 35.1515 124.871 35.8132C123.637 36.4421 122.5 37.7375 122.842 39.2245ZM130.007 36.9191C129.502 37.8848 129.056 38.8831 128.761 39.9353C130.099 40.1481 131.443 40.611 132.808 40.4333C133.851 40.2977 134.302 39.0772 134.164 38.149C133.928 37.9479 133.697 37.7468 133.463 37.5481C132.654 37.2184 131.843 36.8443 130.961 36.7718C130.66 36.7905 130.18 36.5684 130.007 36.9191Z" fill="#232323"/>
<path d="M64.9488 27.6437C65.1031 27.7255 65.4117 27.8869 65.566 27.9687C66.0709 29.0092 65.9774 30.2648 65.421 31.2678C64.9113 32.3784 63.9458 33.4376 62.6576 33.5358C61.83 33.6644 60.9112 33.475 60.3595 32.8016C59.4758 34.761 56.2775 35.2333 55.118 33.316C54.7088 32.0791 55.3798 30.8119 55.7796 29.6545C55.99 29.2243 56.3126 28.268 56.9555 28.6982C57.007 29.1986 57.0724 29.6989 57.201 30.1853C57.8346 30.8493 58.9006 31.0925 59.7493 30.7394C60.3992 30.3045 60.7686 29.5727 61.2806 28.9998C61.6079 30.2273 63.2795 30.6318 64.1913 29.8182C64.6518 29.1869 64.5817 28.3288 64.9488 27.6437Z" fill="#232323"/>
<path d="M148.71 32.741C149.66 32.8018 150.564 33.0987 151.467 33.3723C152.975 33.8609 154.572 34.5156 155.535 35.839C155.705 36.6269 155.568 37.4523 155.369 38.2215C154.728 39.9705 153.73 41.6913 152.124 42.7131C150.938 43.335 149.59 43.494 148.294 43.7489C145.526 44.2376 142.725 44.8618 140.254 46.2577C137.563 47.7074 135.399 50.1951 134.636 53.188C133.306 58.3459 132.577 63.6488 132.247 68.961C131.88 74.8788 131.567 80.8013 131.434 86.7285C131.359 88.1548 131.223 89.5763 131.073 90.9979C130.676 93.9463 130.786 96.9415 130.367 99.8828C130.311 96.9251 130.089 93.972 130.042 91.0119C129.799 86.5555 129.727 82.0896 129.862 77.6285C129.97 74.5071 129.951 71.3763 130.281 68.2689C130.576 65.4725 130.727 62.6527 131.303 59.8961C131.983 56.6648 132.668 53.3984 134.043 50.3775C135.583 46.9288 137.996 43.9383 140.748 41.378C142.076 40.2323 143.628 39.3976 145.117 38.4904C145.884 38.0649 146.19 37.1951 146.588 36.4656C147.2 35.1703 147.976 33.9661 148.71 32.741Z" fill="#232323"/>
<path d="M42.8838 39.1568C43.3701 38.3899 44.4011 38.7733 45.1188 38.93C47.5128 39.7343 49.6216 41.8082 49.9699 44.3848C50.3861 47.1953 49.5257 50.0104 48.4854 52.5917C47.5549 54.8784 45.9534 57.1394 43.4589 57.8291C42.5191 58.0092 41.4179 58.0115 40.6815 57.3101C39.3021 56.1901 39.1058 54.2354 39.3442 52.587C39.5289 51.0836 40.1414 49.6924 40.6558 48.2849C40.2911 48.0464 39.8656 47.712 40.0105 47.2116C40.4313 45.3458 41.1444 43.5571 41.7429 41.7404C42.0655 40.8589 42.3484 39.9377 42.8838 39.1568ZM42.3718 48.4509C41.5302 48.9559 41.2777 50.0501 41.093 50.9527C40.8966 51.8739 41.5372 52.6759 42.2713 53.1341C43.9475 53.9198 46.1498 53.2698 47.0803 51.6611C47.3047 50.8708 46.753 50.16 46.2433 49.6223C45.2778 48.5982 43.7441 48.0604 42.3718 48.4509Z" fill="#232323"/>
<path d="M29.9389 39.9844C30.1867 39.7015 30.6356 39.6524 30.9021 39.94C32.2628 41.0365 33.8549 42.0583 34.5749 43.7207C35.0004 44.6326 34.603 45.6497 34.0185 46.3862C33.1371 47.5366 32.1693 48.6846 30.9232 49.4492C32.1529 50.2231 33.2774 51.1794 34.264 52.2479C35.0495 53.1083 35.5872 54.4364 34.9139 55.5213C34.0115 57.0154 32.7584 58.2826 31.3604 59.3184C31.2107 59.3114 30.9091 59.2974 30.7595 59.2904C29.49 57.7565 27.8933 56.5571 26.4578 55.1939C27.0773 54.1348 27.8979 53.2136 28.5946 52.2035C29.2376 51.3407 29.7519 50.368 30.5701 49.6479C29.8477 49.1288 29.3241 48.3993 28.6718 47.8054C27.7974 46.9918 26.8623 46.2506 25.9879 45.4393C26.5303 44.4315 27.3018 43.5781 27.9494 42.6405C28.6157 41.759 29.1627 40.7794 29.9389 39.9844Z" fill="#232323"/>
<path d="M183.896 42.6149C184.003 42.6243 184.223 42.643 184.331 42.6523C185.315 44.0645 184.546 45.9935 183.421 47.0784C182.481 47.9575 180.77 48.1165 179.87 47.1018C179.138 48.9396 176.099 49.2552 175.175 47.4361C175.065 46.0122 175.62 44.5626 176.403 43.3935C176.515 43.3888 176.739 43.3771 176.854 43.3725C176.912 44.0458 176.966 44.794 177.553 45.2383C178.18 45.3341 178.883 45.6194 179.47 45.2196C179.975 44.8081 180.272 44.2048 180.728 43.7442C180.962 44.7356 182.044 45.0232 182.921 44.7332C183.711 44.3404 183.585 43.3163 183.896 42.6149Z" fill="#232323"/>
<path d="M70.8332 53.0359C71.1909 52.615 71.5439 51.7125 72.2289 52.0352C73.3067 52.6805 74.3237 53.431 75.2729 54.2564C76.0186 54.9765 76.7293 55.9726 76.5189 57.0692C76.2922 57.9132 75.7615 58.631 75.2565 59.3325C74.5084 60.2584 73.7626 61.231 72.7222 61.8506C72.2359 61.5373 71.8455 61.1095 71.427 60.7143C70.2768 59.7393 69.0354 58.8765 67.8594 57.9319C68.7759 56.2578 69.8864 54.696 70.8332 53.0359Z" fill="#232323"/>
<path d="M161.966 53.4287C162.097 53.3679 162.359 53.2487 162.488 53.1879C163.932 54.0764 165.394 55.028 166.462 56.3677C167.079 57.1393 167.205 58.2476 166.717 59.1174C166.032 60.3379 165.132 61.4345 164.15 62.4282C163.78 62.8607 163.091 63.3471 162.635 62.7415C161.356 61.3947 159.794 60.38 158.333 59.2507C158.707 58.4089 159.268 57.6748 159.745 56.8915C160.496 55.7435 161.113 54.5089 161.966 53.4287Z" fill="#232323"/>
<path d="M169.466 55.3179C169.934 54.5463 170.376 53.7209 171.105 53.1598C172.3 53.7607 173.368 54.5837 174.395 55.4325C175.04 56.0567 175.687 56.8096 175.79 57.7379C175.877 58.8017 175.161 59.6645 174.6 60.4898C173.845 61.4181 173.095 62.372 172.115 63.0758C171.771 63.0104 171.486 62.8303 171.255 62.5825C169.992 61.2988 168.445 60.3566 167.086 59.1852C167.825 57.8618 168.723 56.6389 169.466 55.3179Z" fill="#232323"/>
<path d="M205.075 55.1894C205.463 54.7054 206.031 55.2338 206.41 55.4559C207.714 56.3771 209.196 57.268 209.919 58.755C210.51 59.9662 209.687 61.2147 208.981 62.1687C208.175 63.1484 207.441 64.273 206.281 64.8669C205.526 64.425 205 63.7025 204.305 63.1858C203.352 62.4493 202.391 61.7198 201.42 61.0066C201.975 59.8586 202.755 58.8462 203.401 57.7496C203.941 56.8868 204.39 55.9516 205.075 55.1894Z" fill="#232323"/>
<path d="M214.036 54.9696C214.784 55.035 215.338 55.5962 215.943 55.9867C217.04 56.784 218.223 57.6374 218.768 58.9257C219.235 60.2748 218.239 61.4649 217.505 62.489C216.764 63.3471 216.06 64.2824 215.088 64.8926C214.354 64.4367 213.807 63.7539 213.124 63.2349C212.2 62.4446 211.155 61.8086 210.255 60.9973C210.517 60.048 211.272 59.2717 211.756 58.4043C212.486 57.2399 213.101 55.9937 214.036 54.9696Z" fill="#232323"/>
<path d="M121.829 64.0368C122.699 61.493 123.265 58.7269 125.011 56.6016C124.948 58.7924 124.277 60.9201 124.242 63.118C123.805 68.0655 123.711 73.1369 122.108 77.888C121.14 80.2775 120.137 82.9079 117.902 84.4043C118.051 83.4317 118.608 82.5876 118.907 81.6594C119.452 80.3664 119.793 79.0009 119.94 77.605C120.368 74.4135 120.588 71.2009 120.936 68.0023C121.065 66.6485 121.35 65.3088 121.829 64.0368Z" fill="#232323"/>
<path d="M236.5 62.7859C236.666 62.4282 237.054 62.323 237.398 62.2131C237.134 63.7703 236.559 65.2597 236.426 66.8426C235.518 73.4291 236.002 80.4318 232.963 86.5414C232.259 87.638 231.965 89.1367 230.677 89.7353C230.922 88.0051 231.659 86.3894 231.89 84.6569C232.386 80.986 232.577 77.2824 233.05 73.6068C233.337 71.0536 234.373 68.6827 235.095 66.2394C235.488 65.0609 235.897 63.8755 236.5 62.7859Z" fill="#232323"/>
<path d="M108.284 62.6831C108.543 62.4984 108.861 62.461 109.165 62.3955C109.27 63.1624 108.471 63.5365 108.085 64.086C106.121 66.5924 103.334 68.2502 100.559 69.7138C98.5722 70.5673 96.5593 71.3599 94.4903 71.9865C93.0197 72.4354 91.5983 73.048 90.1021 73.4128C90.3896 72.9639 90.7683 72.5804 91.2383 72.3255C95.5259 69.6577 100.017 67.336 104.454 64.9324C105.771 64.252 107.026 63.4663 108.284 62.6831Z" fill="#232323"/>
<path d="M225.407 76.8778C225.765 76.5411 226.008 77.0719 225.987 77.3782C226.209 79.1482 225.274 80.7662 224.336 82.1854C223.607 83.296 222.38 83.9998 221.061 84.1073C220.042 84.112 219.754 85.3723 218.793 85.5126C218.164 85.7324 217.43 85.2484 216.876 85.7253C215.66 86.6863 214.34 87.6379 212.776 87.8951C211.469 88.2155 210.122 88.2318 208.789 88.2739C207.709 88.2809 206.578 88.2669 205.612 87.7244C205.596 87.6099 205.566 87.3784 205.549 87.2638C207.387 86.6863 209.322 86.539 211.188 86.062C213.729 85.3372 216.434 84.1401 217.774 81.7201C218.433 80.9976 219.057 82.3117 219.813 81.9843C220.876 81.7038 221.148 80.4575 221.564 79.5854C221.685 79.2698 222.069 79.396 222.328 79.3633C222.585 79.6579 222.882 79.9314 223.317 79.8543C224.411 79.1996 224.724 77.8762 225.407 76.8778Z" fill="#232323"/>
<path d="M69.0167 82.5712C69.8513 81.3507 70.4381 79.9478 71.4925 78.884C72.3739 79.1365 73.0635 79.7748 73.8093 80.2775C74.7632 81.0163 75.8106 81.823 76.1916 83.0201C76.5657 84.2406 75.682 85.3208 75.0437 86.2678C74.3354 87.1165 73.6784 88.0635 72.7386 88.6691C72.3271 88.9005 71.9554 88.5007 71.6842 88.2412C70.4708 86.9739 68.9606 86.055 67.6116 84.9491C67.9599 84.091 68.5304 83.3521 69.0167 82.5712Z" fill="#232323"/>
<path d="M46.3649 81.1964C46.7553 80.5815 47.106 79.9128 47.6741 79.4405C48.0295 79.2979 48.3123 79.6018 48.5999 79.7491C49.8764 80.6259 51.2417 81.484 52.1091 82.8027C52.6164 83.5509 52.6164 84.5657 52.1558 85.3396C51.3984 86.6981 50.3907 87.9162 49.2358 88.9567C48.9459 89.3238 48.3825 89.2653 48.1183 88.9053C46.8138 87.5608 45.2287 86.5484 43.7862 85.37C44.6161 83.9601 45.5443 82.611 46.3649 81.1964Z" fill="#232323"/>
<path d="M55.6159 80.4107C55.8918 80.0343 56.1279 79.5713 56.5791 79.382C57.1636 79.5246 57.6288 79.9431 58.1268 80.2611C59.3331 81.1589 60.7429 82.0544 61.2011 83.5766C61.498 84.7526 60.6914 85.7908 60.0509 86.6886C59.2957 87.6145 58.5663 88.5965 57.5587 89.2629C56.9789 89.153 56.6516 88.641 56.2378 88.2785C55.0992 87.2731 53.8672 86.3823 52.6398 85.4892C52.7403 84.8579 53.1658 84.3598 53.4931 83.8314C54.2459 82.7185 54.8935 81.5424 55.6159 80.4107Z" fill="#232323"/>
<path d="M197.441 25.322C204.806 19.8671 213.255 16.084 220.565 10.5497C221.115 10.8443 221.753 10.7063 222.352 10.7274C228.035 10.7204 233.718 10.7321 239.402 10.7227C240.136 10.7367 240.926 10.7554 241.56 11.1857C244.071 12.7756 245.819 15.3966 246.689 18.2071C247.493 20.6574 247.596 23.2645 247.722 25.82C249.794 25.8808 251.898 25.6915 253.941 26.145C256.69 26.9166 258.977 28.8877 260.529 31.2445C261.974 33.5172 262.727 36.1359 263.381 38.7219C263.933 40.2721 264.403 41.8526 264.639 43.4847C265.287 46.4751 266.895 49.7298 270 50.7586C268.983 51.1023 267.961 51.5489 267.265 52.3976C265.584 54.3617 264.794 56.9032 264.16 59.3653C263.082 63.4991 262.458 68.0117 259.646 71.409C258.659 72.7674 257.483 74.0815 255.877 74.6987C253.315 75.7299 250.476 75.7883 247.753 75.648C247.617 78.5567 247.397 81.5238 246.313 84.2594C245.455 86.5437 243.858 88.4961 241.941 89.9808C240.947 90.7243 239.692 91.0213 238.469 90.9956C215.539 90.9979 192.611 91.0025 169.684 90.9954C169.959 88.9846 170.135 86.9622 170.376 84.949C171.879 85.0566 173.382 84.9935 174.888 84.9514C183.232 84.9607 191.578 83.8805 199.634 81.6967C203.277 80.8176 206.667 79.1785 210.141 77.8177C213.332 76.3727 216.35 74.5771 219.301 72.6925C222.115 70.9787 224.841 69.0988 227.334 66.9407C229.01 65.4186 230.707 63.8544 231.895 61.902C233.929 58.6099 235.219 54.9367 236.447 51.2869C237.438 48.2052 238.406 45.1142 239.266 41.9928C238.387 42.409 237.896 43.2835 237.375 44.0551C236.652 45.1937 235.727 46.2085 235.205 47.4664C234.399 49.0961 234.025 50.8824 233.529 52.6197C233.019 54.4948 232.942 56.522 231.909 58.2218C231.037 60.0011 229.372 61.1655 227.817 62.3019C222.964 65.7366 217.601 68.3623 212.175 70.7519C208.57 72.1314 204.888 73.3098 201.18 74.3713C193.217 76.4382 184.957 77.2589 176.742 77.2145C175.143 77.2846 173.543 77.2098 171.951 77.0602C172.384 75.6853 172.819 74.2825 173.635 73.0783C174.411 71.7807 175.687 70.8968 176.94 70.1066C178.787 69.169 180.74 68.4044 182.78 68.0116C184.814 67.5112 186.958 67.565 188.952 66.9057C190.834 66.2533 191.887 64.4062 192.712 62.7181C193.112 61.694 193.633 60.3869 192.873 59.4049C191.48 58.0301 189.471 57.6466 187.629 57.2515C188.08 55.8346 188.684 54.4738 189.161 53.0639C190.185 54.8572 192.216 56.0848 194.311 55.8533C196.343 55.7691 197.921 54.2072 198.907 52.5565C199.919 50.7959 201.063 48.8763 203.048 48.0977C204.093 47.6488 205.18 48.1865 206.239 48.2614C206.943 48.3245 207.583 47.9481 208.139 47.5576C209.297 46.7065 210.15 45.5187 210.875 44.2935C211.595 45.175 212.46 45.9957 213.559 46.3745C216.212 47.2513 219.181 46.8141 221.61 45.4907C225.512 43.4401 227.939 39.5097 229.758 35.6378C230.261 34.3495 231.175 33.1664 231.191 31.7331C230.034 32.3714 229.837 33.8374 229.204 34.8919C227.874 37.5363 223.843 38.2401 221.727 36.1615C220.886 35.3104 221.11 33.9543 221.624 32.9933C222.33 31.7191 223.392 30.4354 224.911 30.1852C226.169 29.9047 227.427 30.2624 228.666 30.4682C229.375 30.6669 229.975 30.0239 230.181 29.409C230.375 28.586 229.77 27.805 229.129 27.3655C227.81 26.6313 226.148 26.6734 224.788 27.2719C223.209 28.0178 222.143 29.4908 221.274 30.9498C219.901 33.5288 219.069 36.3486 217.786 38.9673C216.49 38.9696 215.111 38.6142 214.227 37.6088C213.421 36.6502 213.348 35.3338 213.21 34.146C213.023 31.1065 213.496 28.0786 213.851 25.0694C213.989 23.8045 214.26 22.5419 214.171 21.2629C213.257 23.0165 212.67 24.9151 211.983 26.7622C210.863 29.7784 210.933 33.0378 210.636 36.1966C210.382 38.3103 210.335 40.4777 209.636 42.5096C209.425 43.1175 208.983 43.6973 208.315 43.8142C206.985 44.041 205.598 43.3115 204.308 43.8797C202.365 44.7144 201.558 47.0245 199.566 47.7914C197.226 48.7851 193.97 48.4087 192.548 46.1009C191.23 43.6459 191.887 40.777 191.872 38.1279C191.868 35.079 192.261 32.0534 192.625 29.0325C192.513 29.0723 192.284 29.1471 192.172 29.1845C191.092 31.8173 189.881 34.4196 189.303 37.223C188.055 42.2664 189.343 47.5716 187.87 52.5752C186.93 55.8439 185.121 58.7596 183.444 61.6846C182.963 62.3065 182.152 62.5357 181.525 62.9776C178.444 64.7873 175.739 67.2657 173.782 70.2585C172.531 72.3558 171.285 74.5046 170.67 76.8895C166.988 76.5996 163.271 76.1693 159.752 74.9979C158.088 74.3316 156.47 73.5156 154.983 72.5102C153.274 71.3808 152.402 69.3279 152.206 67.3452C151.843 63.5855 152.505 59.8398 152.881 56.1081C153.183 54.2353 153.627 52.3812 153.767 50.4849C152.921 50.9128 152.633 51.8644 152.278 52.6687C151.652 54.2844 150.85 55.8486 150.492 57.5554C149.293 63.0875 149.517 68.7878 148.83 74.3853C148.596 76.2208 148.411 78.1731 147.277 79.714C145.793 81.9399 143.123 83.1066 140.512 83.2422C139.988 83.2282 139.476 83.0972 138.968 82.992C139.074 82.6694 139.17 82.3397 139.354 82.0521C141.372 78.9237 142.602 75.3393 143.289 71.6965C144.049 67.1418 143.899 62.4936 144.603 57.9319C144.841 56.1689 145.236 54.4083 145.157 52.6197C144.093 53.6274 143.761 55.0864 143.223 56.3911C142.272 58.8765 141.175 61.3619 141.005 64.0555C140.706 68.6709 140.49 73.3168 139.544 77.8575C139.144 79.4006 138.393 80.8199 137.734 82.2602C137.028 83.9226 137.503 85.9006 138.58 87.2918C139.088 87.9325 139.691 88.6152 140.542 88.7462C142.005 89.0899 143.612 88.655 144.668 87.5771C147.497 85.0893 148.622 81.3834 150.197 78.0936C151.004 78.8208 151.761 79.6017 152.596 80.3008C154.13 81.5774 156.044 82.2415 157.887 82.9429C161.368 84.2219 165.085 84.6474 168.767 84.8812C168.409 86.9014 168.206 88.9426 168.021 90.9838C155.705 91.0188 143.389 90.9886 131.073 90.9979C131.223 89.5763 131.359 88.1548 131.434 86.7285C131.567 80.8013 131.88 74.8788 132.247 68.961C132.577 63.6488 133.306 58.3459 134.636 53.188C135.399 50.1951 137.563 47.7074 140.254 46.2577C142.725 44.8618 145.526 44.2376 148.294 43.7489C149.59 43.494 150.938 43.335 152.124 42.7131C153.73 41.6913 154.728 39.9705 155.369 38.2215C155.568 37.4523 155.705 36.6269 155.535 35.839C154.572 34.5156 152.975 33.8609 151.467 33.3723C150.564 33.0987 149.66 32.8018 148.71 32.741C147.976 33.9661 147.2 35.1703 146.588 36.4656C146.19 37.1951 145.884 38.0649 145.117 38.4904C143.628 39.3976 142.076 40.2323 140.748 41.378C137.996 43.9383 135.583 46.9288 134.043 50.3775C132.668 53.3984 131.983 56.6648 131.303 59.8961C130.727 62.6527 130.576 65.4725 130.281 68.2689C129.951 71.3763 129.97 74.5071 129.862 77.6285C129.727 82.0896 129.799 86.5555 130.042 91.0119C97.5319 90.9792 65.0236 91.0096 32.513 90.9979C31.1523 91.033 29.7005 91.026 28.5082 90.2707C25.857 88.6761 24.0826 85.9031 23.2012 82.9828C22.446 80.661 22.3549 78.213 22.1421 75.8024C19.7247 75.6527 17.2793 75.6574 14.904 75.1383C12.2622 74.4229 10.4924 72.1058 9.21594 69.8237C6.13695 64.7149 6.52504 58.2921 3.3572 53.2253C2.62545 51.9604 1.19933 51.4694 0 50.7867C2.11345 50.0992 3.58164 48.2474 4.41393 46.2624C6.07616 42.3764 6.42918 38.0859 7.98154 34.1625C8.73901 32.3177 9.73495 30.5454 11.133 29.1098C12.9495 27.3211 15.2126 25.8551 17.7936 25.5558C19.2665 25.4623 20.7441 25.4763 22.2193 25.4343C22.2847 21.4875 22.965 17.349 25.3333 14.0873C26.6706 12.4646 28.3282 10.6315 30.6286 10.7297C91.5796 10.7204 152.531 10.7297 213.482 10.725C214.16 10.7157 214.856 10.6432 215.516 10.8723C209.414 14.5525 203.087 17.9195 197.446 22.3081C196.235 23.2785 194.888 24.1529 194.028 25.481C193.371 26.5051 192.819 27.6251 192.607 28.8315C192.978 28.6281 193.343 28.399 193.67 28.1231C194.858 27.099 196.195 26.2713 197.441 25.322ZM85.4169 15.081C83.5303 18.186 83.2123 21.9107 82.9621 25.453C82.7284 28.0202 83.0299 30.6156 82.5974 33.1665C82.4642 33.7533 82.1977 34.3613 81.6553 34.6769C80.3624 35.6309 78.436 35.8834 77.0847 34.9084C76.1168 34.2373 76.1519 32.9397 75.7942 31.9343C75.6048 31.8454 75.4739 31.9086 75.4038 32.1213C74.1998 34.4758 73.9847 37.2138 74.4125 39.7951C74.0642 40.3749 73.7602 41.0437 73.2108 41.4528C71.7356 41.8269 70.209 40.6742 68.7712 41.3874C66.8027 42.5424 66.0616 44.8361 64.9955 46.7183C64.3619 47.8079 63.539 49.0494 62.1924 49.2528C61.6266 48.7408 61.2829 48.0393 60.7756 47.4735C59.9714 46.4728 58.8469 45.5072 57.4862 45.5586C56.5861 45.7059 56.1326 46.6178 55.7796 47.3566C55.2699 48.659 54.6807 49.9286 54.0215 51.1631C53.4393 52.2667 53.4978 53.8309 54.5779 54.6118C55.7141 55.7388 57.4207 55.6102 58.8889 55.5658C58.3208 57.0926 56.9321 58.0302 55.672 58.9444C53.0045 61.0557 49.7011 62.0986 46.8745 63.9527C46.5122 64.1561 46.3158 64.5209 46.1451 64.8809C46.5215 64.9464 46.9026 64.9745 47.2837 64.8996C50.0891 64.4881 52.7941 63.609 55.471 62.6924C56.8082 62.2061 57.8836 61.1773 58.6879 60.027C59.9059 58.2126 60.785 56.2018 61.7716 54.2588C62.5781 52.7858 63.9247 51.7219 64.8295 50.3167C65.7506 49.15 66.1668 47.6723 67.1253 46.5336C67.4246 46.2156 67.7448 45.8181 68.2311 45.8345C69.7531 45.8088 71.406 46.5757 72.8321 45.7456C74.2979 44.635 74.9245 42.8276 75.6866 41.2237C75.7661 41.2401 75.9228 41.2728 76.0023 41.2892C76.6662 41.9438 77.6832 41.9976 78.5622 41.9251C80.0398 41.7498 81.169 40.6228 81.9872 39.4607C83.577 37.0805 84.3485 34.2818 85.099 31.5508C86.0388 27.41 86.0622 23.1476 86.504 18.9413C86.6326 16.5657 87.0394 14.2136 87.182 11.845C86.0902 12.5582 85.9944 14.0101 85.4169 15.081ZM65.1568 16.0302C61.6079 17.9194 58.0801 19.846 54.606 21.8662C53.8415 22.3993 52.925 22.771 52.3873 23.566C53.5983 23.5356 54.6948 22.8833 55.8661 22.6167C60.2683 21.3799 64.8319 19.514 67.6701 15.7543C68.0278 15.275 68.6753 14.8354 68.5397 14.155C67.2983 14.5478 66.3117 15.455 65.1568 16.0302ZM144.392 15.5603C142.98 16.9538 142.022 18.7963 141.641 20.7392C141.103 18.7822 140.329 16.6499 138.51 15.5369C137.397 14.7489 135.826 14.4169 134.59 15.1114C133.783 16.6896 134.038 18.5367 134.101 20.2412C134.321 21.899 136.31 22.4297 137.732 22.2193C138.742 21.9831 139.181 23.1452 139.644 23.8116C140.593 25.986 140.177 28.3943 140.236 30.688C140.687 30.8096 141.136 30.7745 141.51 30.4682C141.966 28.7497 142.118 26.961 142.634 25.2518C143.011 23.9261 143.448 22.4718 144.624 21.6277C145.755 20.9333 147.125 20.9684 148.404 20.8725C148.89 20.5078 149.148 19.9069 149.346 19.3457C149.77 17.8657 149.966 16.2454 149.477 14.756C149.37 14.6648 149.155 14.4847 149.047 14.3936C147.436 14.2229 145.638 14.4263 144.392 15.5603ZM121.418 16.208C119.536 17.2063 117.549 17.9803 115.613 18.8594C112.967 20.0098 110.329 21.1765 107.676 22.3058C105.787 23.0774 104.01 24.0898 102.215 25.0508C101.156 25.8481 100.344 26.9283 99.4863 27.929C99.1497 28.2821 99.0795 28.8035 99.2806 29.2407C100.478 29.6733 101.876 30.2344 102.266 31.5812C102.799 33.0495 102.105 34.7307 100.831 35.563C100.466 35.8553 99.8931 36.054 99.8744 36.6035C102.46 36.1172 104.454 33.7346 104.92 31.2048C105.301 29.4769 104.461 27.6181 102.995 26.6618C102.988 26.5846 102.974 26.4303 102.967 26.3531C108.899 24.174 114.916 22.1585 120.588 19.3411C121.72 18.6373 122.793 17.7792 123.578 16.692C123.976 16.1378 124.586 15.5322 124.249 14.7981C123.274 15.2049 122.37 15.7567 121.418 16.208ZM72.7012 17.4915C72.0162 18.6793 71.1745 19.7736 70.548 20.9987C72.0793 22.1655 73.7158 23.234 75.0087 24.6766C75.336 24.7304 75.7357 24.8193 75.9952 24.541C77.1829 23.4491 78.27 22.2005 78.9994 20.7532C79.3969 20.005 79.3291 19.0745 78.8662 18.373C78.0783 17.2227 76.9281 16.3903 75.7848 15.6234C75.343 15.3521 74.9151 14.9336 74.3517 15.0388C73.7041 15.7894 73.1898 16.6334 72.7012 17.4915ZM165.719 19.0931C165.272 20.2084 164.554 21.2255 164.342 22.4273C163.612 29.1939 162.35 35.9651 162.742 42.7971C162.885 44.7144 164.122 46.9169 166.207 47.1367C167.409 47.3471 168.452 46.5896 169.293 45.8344C170.712 44.6092 171.353 42.7831 172.085 41.116C172.625 39.2104 173.2 37.2955 173.366 35.3104C172.634 35.6588 172.356 36.4725 172.122 37.1856C171.86 38.0016 171.416 38.8106 170.67 39.2736C169.452 39.8651 167.926 39.6196 166.827 38.8924C165.868 37.6018 165.585 35.9324 165.553 34.3588C165.604 29.7994 166.312 25.2822 167.023 20.7906C167.175 18.8359 167.818 16.907 167.533 14.9359C166.637 16.1821 166.324 17.7066 165.719 19.0931ZM43.0147 15.9694C41.8785 17.1548 41.0789 18.5998 40.0643 19.8788C39.6715 20.5171 39.0333 21.0408 38.872 21.7984C39.7884 22.4741 40.595 23.2808 41.4717 24.0079C42.1918 24.5925 42.6921 25.4014 43.4566 25.9369C42.5822 26.6336 42.0492 27.6367 41.4086 28.5322C40.761 29.4301 40.0713 30.2975 39.4541 31.2164C39.4377 31.3052 39.4027 31.4829 39.384 31.5718C40.6698 32.6637 42.0118 33.7088 43.1363 34.9761C43.3724 35.245 43.6506 35.4718 43.9428 35.6822C44.7564 35.3198 45.3596 34.6464 45.9838 34.0338C46.7974 33.1547 47.7068 32.2639 48.0435 31.0808C48.2773 30.0894 47.6835 29.1518 47.0826 28.4176C46.0984 27.3959 45.0066 26.4559 43.7885 25.7194C44.719 25.1302 45.4344 24.2721 46.1872 23.4818C46.9213 22.6074 47.8214 21.5646 47.5362 20.3324C47.1504 18.9295 45.9347 17.9989 44.8873 17.0824C44.2935 16.6709 43.7885 15.9975 43.0147 15.9694ZM170.579 19.4556C171.005 19.9746 171.507 20.4493 171.792 21.0712C172.377 22.2684 172.389 23.6596 172.185 24.9525C172.008 26.0795 171.208 27.0989 171.449 28.2797C172.379 27.2486 172.814 25.8995 173.378 24.6556C174.497 22.1047 174.544 19.0488 173.263 16.5469C173.172 16.3108 172.884 15.7192 172.597 16.1004C171.874 17.1829 171.098 18.2561 170.579 19.4556ZM219.579 23.1404C219.078 23.5029 218.431 23.718 218.099 24.2674C218.356 24.2628 218.609 24.2183 218.856 24.1365C221.578 23.1475 224.449 22.4507 226.915 20.8771C228.575 19.9653 229.929 18.6185 231.114 17.1618C231.109 17.0473 231.098 16.8181 231.093 16.7036C227.315 18.9575 223.347 20.8725 219.579 23.1404ZM182.247 24.5574C182.091 25.1185 182.002 25.848 182.493 26.2736C183.288 26.8862 184.363 26.7599 185.296 26.6477C185.369 26.505 185.455 26.3694 185.553 26.2385C185.572 26.7365 185.644 27.2883 185.34 27.7209C183.907 30.239 181.406 31.8664 179.019 33.3792C181.878 33.0705 184.284 31.048 185.895 28.7684C186.816 27.2603 187.774 25.6516 187.858 23.8396C187.903 22.9698 187.812 22.0275 187.251 21.3237C186.732 20.6433 185.752 20.2575 184.955 20.6807C183.463 21.4102 182.615 23.0025 182.247 24.5574ZM94.0273 23.1545C93.0361 25.2939 91.8812 27.4005 91.3809 29.727C90.1885 34.5482 90.5018 39.5916 89.3586 44.4221C89.0079 45.8928 88.2668 47.2209 87.7244 48.6191C88.4679 48.252 89.0289 47.595 89.5339 46.9543C90.78 44.9178 91.6661 42.6779 92.309 40.3842C93.7772 34.7423 93.347 28.7964 94.8409 23.1615C94.9298 22.771 94.9718 22.3712 94.9859 21.9714C94.5697 22.2777 94.2237 22.6728 94.0273 23.1545ZM207.733 25.315C205.853 26.6454 203.726 27.5573 201.769 28.7638C200.273 29.6826 198.627 30.4215 197.367 31.6701C198.239 31.8057 199.043 31.3006 199.894 31.172C202.755 30.5641 205.734 29.4254 207.508 26.9681C207.875 26.3461 208.495 25.8107 208.521 25.0438C208.233 25.0578 207.96 25.1373 207.733 25.315ZM116.894 26.6383C115.728 29.4114 114.806 32.3013 114.332 35.2777C113.986 37.9222 114.082 40.5947 113.906 43.2484C113.885 47.8476 113.785 52.4467 113.888 57.0458C113.939 61.5256 113.621 66.106 112.031 70.3357C111.043 72.7604 109.724 75.1312 107.76 76.9035C104.952 79.742 100.992 81.2689 97.0339 81.4372C94.5253 81.5518 91.8602 81.5938 89.5854 80.3663C87.1937 79.3048 85.5315 76.7446 85.6718 74.1118C85.6694 70.3708 87.1493 66.8589 88.6666 63.5107C90.5556 62.842 91.437 60.8312 92.461 59.26C93.1483 59.8539 93.9923 60.4431 94.9579 60.2701C96.8726 60.0292 98.2099 58.3645 99.0024 56.7278C99.6149 55.3085 100.183 53.8098 100.185 52.2409C99.2806 52.2549 98.965 53.3118 98.1865 53.6017C97.1578 53.9477 95.8276 53.8449 95.1122 52.9424C94.2612 51.7616 94.8339 50.2535 94.7545 48.9254C94.1419 48.7851 93.9152 49.524 93.6533 49.9238C92.4516 52.4186 91.617 55.1963 91.8157 57.9904C91.8485 58.4791 91.3552 58.776 90.9694 58.9514C89.2908 59.26 87.5281 58.3879 85.8986 59.0425C84.4304 59.7744 83.5536 61.2404 82.6185 62.524C81.5922 63.8685 80.0468 64.6517 78.5389 65.3298C72.7339 67.897 66.3702 68.8346 60.086 69.3023C57.5961 69.4543 55.1086 69.6717 52.6117 69.6249C48.6631 69.6553 44.7214 69.321 40.7937 68.9305C37.9135 68.5307 34.7947 68.1332 32.5083 66.1622C31.2809 65.0258 31.4305 63.2114 30.9232 61.7431C30.0862 62.5848 29.9927 63.8591 29.8291 64.9767C29.6724 66.8052 28.8775 68.5284 28.8565 70.3731C28.8682 72.1267 29.6654 74.037 31.2949 74.867C33.8479 76.4009 36.9105 76.4172 39.7791 76.7773C44.885 77.3618 50.0331 77.0766 55.139 76.6627C59.7026 76.153 64.2825 75.641 68.7502 74.5444C72.7059 73.712 76.6616 72.3465 79.8388 69.7722C81.4472 68.3226 82.0691 66.1411 83.4601 64.5231C84.6151 63.4944 86.2866 63.7609 87.7104 63.6627C87.3644 64.7008 86.7449 65.6221 86.3194 66.6274C84.3252 70.8384 83.2404 75.5147 83.4578 80.184C83.6191 82.9453 84.6267 85.7931 86.822 87.5888C88.6292 89.2325 91.1611 89.6254 93.513 89.7095C96.1408 89.7306 98.8177 89.2419 101.142 87.9723C102.748 87.0978 104.335 86.1205 105.588 84.7667C108.609 81.851 110.944 78.2597 112.487 74.3597C113.605 71.5422 114.617 68.671 115.267 65.7039C116.399 60.1836 116.438 54.5276 116.691 48.9208C118.479 49.6082 120.495 49.1101 122.115 48.21C124.488 46.931 126.18 44.7332 127.557 42.4745C128.883 42.0747 130.272 42.6078 131.621 42.6265C132.565 42.6896 133.294 41.9765 133.898 41.3452C134.861 40.1644 135.642 38.7054 135.623 37.1436C135.515 35.9231 134.704 34.8054 133.575 34.3238C131.829 33.5288 129.858 33.2576 128.235 32.1844C127.221 31.663 126.713 30.6038 126.059 29.7317C125.304 30.6903 124.45 31.6747 124.254 32.9209C124.125 33.4423 124.205 34.0128 124.004 34.5132C123.087 35.8506 122.11 37.181 121.519 38.7031C121.196 39.6594 120.869 40.7256 121.247 41.717C121.362 41.7988 121.593 41.9625 121.708 42.0443C121.706 42.1308 121.703 42.3038 121.701 42.3903C120.52 42.5564 119.115 42.6148 118.185 41.7357C117.224 40.7911 117.079 39.3671 117.03 38.0929C116.953 34.6254 117.182 31.1579 117.558 27.7115C117.633 26.8838 117.867 26.0515 117.727 25.2167C117.317 25.6002 117.144 26.152 116.894 26.6383ZM64.9488 27.6437C64.5817 28.3288 64.6518 29.1869 64.1913 29.8182C63.2795 30.6318 61.6079 30.2273 61.2806 28.9998C60.7686 29.5727 60.3992 30.3045 59.7493 30.7394C58.9006 31.0925 57.8346 30.8493 57.201 30.1853C57.0724 29.6989 57.007 29.1986 56.9555 28.6982C56.3126 28.268 55.99 29.2243 55.7796 29.6545C55.3798 30.8119 54.7088 32.0791 55.118 33.316C56.2775 35.2333 59.4758 34.761 60.3595 32.8016C60.9112 33.475 61.83 33.6644 62.6576 33.5358C63.9458 33.4376 64.9113 32.3784 65.421 31.2678C65.9774 30.2648 66.0709 29.0092 65.566 27.9687C65.4117 27.8869 65.1031 27.7255 64.9488 27.6437ZM42.8838 39.1568C42.3484 39.9377 42.0655 40.8589 41.7429 41.7404C41.1444 43.5571 40.4313 45.3458 40.0105 47.2116C39.8656 47.712 40.2911 48.0464 40.6558 48.2849C40.1414 49.6924 39.5289 51.0836 39.3442 52.587C39.1058 54.2354 39.3021 56.1901 40.6815 57.3101C41.4179 58.0115 42.5191 58.0092 43.4589 57.8291C45.9534 57.1394 47.5549 54.8784 48.4854 52.5917C49.5257 50.0104 50.3861 47.1953 49.9699 44.3848C49.6216 41.8082 47.5128 39.7343 45.1188 38.93C44.4011 38.7733 43.3701 38.3899 42.8838 39.1568ZM29.9389 39.9844C29.1627 40.7794 28.6157 41.759 27.9494 42.6405C27.3018 43.5781 26.5303 44.4315 25.9879 45.4393C26.8623 46.2506 27.7974 46.9918 28.6718 47.8054C29.3241 48.3993 29.8477 49.1288 30.5701 49.6479C29.7519 50.368 29.2376 51.3407 28.5946 52.2035C27.8979 53.2136 27.0773 54.1348 26.4578 55.1939C27.8933 56.5571 29.49 57.7565 30.7595 59.2904C30.9091 59.2974 31.2107 59.3114 31.3604 59.3184C32.7584 58.2826 34.0115 57.0154 34.9139 55.5213C35.5872 54.4364 35.0495 53.1083 34.264 52.2479C33.2774 51.1794 32.1529 50.2231 30.9232 49.4492C32.1693 48.6846 33.1371 47.5366 34.0185 46.3862C34.603 45.6497 35.0004 44.6326 34.5749 43.7207C33.8549 42.0583 32.2628 41.0365 30.9021 39.94C30.6356 39.6524 30.1867 39.7015 29.9389 39.9844ZM183.896 42.6149C183.585 43.3163 183.711 44.3404 182.921 44.7332C182.044 45.0232 180.962 44.7356 180.728 43.7442C180.272 44.2048 179.975 44.8081 179.47 45.2196C178.883 45.6194 178.18 45.3341 177.553 45.2383C176.966 44.794 176.912 44.0458 176.854 43.3725C176.739 43.3771 176.515 43.3888 176.403 43.3935C175.62 44.5626 175.065 46.0122 175.175 47.4361C176.099 49.2552 179.138 48.9396 179.87 47.1018C180.77 48.1165 182.481 47.9575 183.421 47.0784C184.546 45.9935 185.315 44.0645 184.331 42.6523C184.223 42.643 184.003 42.6243 183.896 42.6149ZM70.8332 53.0359C69.8864 54.696 68.7759 56.2578 67.8594 57.9319C69.0354 58.8765 70.2768 59.7393 71.427 60.7143C71.8455 61.1095 72.2359 61.5373 72.7222 61.8506C73.7626 61.231 74.5084 60.2584 75.2565 59.3325C75.7615 58.631 76.2922 57.9132 76.5189 57.0692C76.7293 55.9726 76.0186 54.9765 75.2729 54.2564C74.3237 53.431 73.3067 52.6805 72.2289 52.0352C71.5439 51.7125 71.1909 52.615 70.8332 53.0359ZM161.966 53.4287C161.113 54.5089 160.496 55.7435 159.745 56.8915C159.268 57.6748 158.707 58.4089 158.333 59.2507C159.794 60.38 161.356 61.3947 162.635 62.7415C163.091 63.3471 163.78 62.8607 164.15 62.4282C165.132 61.4345 166.032 60.3379 166.717 59.1174C167.205 58.2476 167.079 57.1393 166.462 56.3677C165.394 55.028 163.932 54.0764 162.488 53.1879C162.359 53.2487 162.097 53.3679 161.966 53.4287ZM169.466 55.3179C168.723 56.6389 167.825 57.8618 167.086 59.1852C168.445 60.3566 169.992 61.2988 171.255 62.5825C171.486 62.8303 171.771 63.0104 172.115 63.0758C173.095 62.372 173.845 61.4181 174.6 60.4898C175.161 59.6645 175.877 58.8017 175.79 57.7379C175.687 56.8096 175.04 56.0567 174.395 55.4325C173.368 54.5837 172.3 53.7607 171.105 53.1598C170.376 53.7209 169.934 54.5463 169.466 55.3179ZM205.075 55.1894C204.39 55.9516 203.941 56.8868 203.401 57.7496C202.755 58.8462 201.975 59.8586 201.42 61.0066C202.391 61.7198 203.352 62.4493 204.305 63.1858C205 63.7025 205.526 64.425 206.281 64.8669C207.441 64.273 208.175 63.1484 208.981 62.1687C209.687 61.2147 210.51 59.9662 209.919 58.755C209.196 57.268 207.714 56.3771 206.41 55.4559C206.031 55.2338 205.463 54.7054 205.075 55.1894ZM214.036 54.9696C213.101 55.9937 212.486 57.2399 211.756 58.4043C211.272 59.2717 210.517 60.048 210.255 60.9973C211.155 61.8086 212.2 62.4446 213.124 63.2349C213.807 63.7539 214.354 64.4367 215.088 64.8926C216.06 64.2824 216.764 63.3471 217.505 62.489C218.239 61.4649 219.235 60.2748 218.768 58.9257C218.223 57.6374 217.04 56.784 215.943 55.9867C215.338 55.5962 214.784 55.035 214.036 54.9696ZM121.829 64.0368C121.35 65.3088 121.065 66.6485 120.936 68.0023C120.588 71.2009 120.368 74.4135 119.94 77.605C119.793 79.0009 119.452 80.3664 118.907 81.6594C118.608 82.5876 118.051 83.4317 117.902 84.4043C120.137 82.9079 121.14 80.2775 122.108 77.888C123.711 73.1369 123.805 68.0655 124.242 63.118C124.277 60.9201 124.948 58.7924 125.011 56.6016C123.265 58.7269 122.699 61.493 121.829 64.0368ZM236.5 62.7859C235.897 63.8755 235.488 65.0609 235.095 66.2394C234.373 68.6827 233.337 71.0536 233.05 73.6068C232.577 77.2824 232.386 80.986 231.89 84.6569C231.659 86.3894 230.922 88.0051 230.677 89.7353C231.965 89.1367 232.259 87.638 232.963 86.5414C236.002 80.4318 235.518 73.4291 236.426 66.8426C236.559 65.2597 237.134 63.7703 237.398 62.2131C237.054 62.323 236.666 62.4282 236.5 62.7859ZM108.284 62.6831C107.026 63.4663 105.771 64.252 104.454 64.9324C100.017 67.336 95.5259 69.6577 91.2383 72.3255C90.7683 72.5804 90.3896 72.9639 90.1021 73.4128C91.5983 73.048 93.0197 72.4354 94.4903 71.9865C96.5593 71.3599 98.5722 70.5673 100.559 69.7138C103.334 68.2502 106.121 66.5924 108.085 64.086C108.471 63.5365 109.27 63.1624 109.165 62.3955C108.861 62.461 108.543 62.4984 108.284 62.6831ZM225.407 76.8778C224.724 77.8762 224.411 79.1996 223.317 79.8543C222.882 79.9314 222.585 79.6579 222.328 79.3633C222.069 79.396 221.685 79.2698 221.564 79.5854C221.148 80.4575 220.876 81.7038 219.813 81.9843C219.057 82.3117 218.433 80.9976 217.774 81.7201C216.434 84.1401 213.729 85.3372 211.188 86.062C209.322 86.539 207.387 86.6863 205.549 87.2638C205.566 87.3784 205.596 87.6099 205.612 87.7244C206.578 88.2669 207.709 88.2809 208.789 88.2739C210.122 88.2318 211.469 88.2155 212.776 87.8951C214.34 87.6379 215.66 86.6863 216.876 85.7253C217.43 85.2484 218.164 85.7324 218.793 85.5126C219.754 85.3723 220.042 84.112 221.061 84.1073C222.38 83.9998 223.607 83.296 224.336 82.1854C225.274 80.7662 226.209 79.1482 225.987 77.3782C226.008 77.0719 225.765 76.5411 225.407 76.8778ZM69.0167 82.5712C68.5304 83.3521 67.9599 84.091 67.6116 84.9491C68.9606 86.055 70.4708 86.9739 71.6842 88.2412C71.9554 88.5007 72.3271 88.9005 72.7386 88.6691C73.6784 88.0635 74.3354 87.1165 75.0437 86.2678C75.682 85.3208 76.5657 84.2406 76.1916 83.0201C75.8106 81.823 74.7632 81.0163 73.8093 80.2775C73.0635 79.7748 72.3739 79.1365 71.4925 78.884C70.4381 79.9478 69.8513 81.3507 69.0167 82.5712ZM46.3649 81.1964C45.5443 82.611 44.6161 83.9601 43.7862 85.37C45.2287 86.5484 46.8138 87.5608 48.1183 88.9053C48.3825 89.2653 48.9459 89.3238 49.2358 88.9567C50.3907 87.9162 51.3984 86.6981 52.1558 85.3396C52.6164 84.5657 52.6164 83.5509 52.1091 82.8027C51.2417 81.484 49.8764 80.6259 48.5999 79.7491C48.3123 79.6018 48.0295 79.2979 47.6741 79.4405C47.106 79.9128 46.7553 80.5815 46.3649 81.1964ZM55.6159 80.4107C54.8935 81.5424 54.2459 82.7185 53.4931 83.8314C53.1658 84.3598 52.7403 84.8579 52.6398 85.4892C53.8672 86.3823 55.0992 87.2731 56.2378 88.2785C56.6516 88.641 56.9789 89.153 57.5587 89.2629C58.5663 88.5965 59.2957 87.6145 60.0509 86.6886C60.6914 85.7908 61.498 84.7526 61.2011 83.5766C60.7429 82.0544 59.3331 81.1589 58.1268 80.2611C57.6288 79.9431 57.1636 79.5246 56.5791 79.382C56.1279 79.5713 55.8918 80.0343 55.6159 80.4107Z" fill="#EDCD92"/>
<path d="M183.702 23.082C184.013 22.6565 184.571 22.8131 185.02 22.7897C185.743 23.4351 186.07 24.4171 185.841 25.364C185.006 25.3453 184.078 25.5815 183.377 25.004C183.25 24.3586 183.166 23.573 183.702 23.082Z" fill="#EDCD92"/>
<path d="M122.842 39.2245C122.5 37.7375 123.637 36.4421 124.871 35.8132C126.346 35.1515 128.13 36.3042 128.334 37.8567C128.455 38.8925 127.48 39.5191 126.671 39.9049C125.43 40.5783 123.84 40.1364 122.842 39.2245Z" fill="#EDCD92"/>
<path d="M130.007 36.9191C130.18 36.5684 130.66 36.7905 130.961 36.7718C131.843 36.8443 132.654 37.2184 133.463 37.5481C133.697 37.7468 133.928 37.9479 134.164 38.149C134.302 39.0772 133.851 40.2977 132.808 40.4333C131.443 40.611 130.099 40.1481 128.761 39.9353C129.056 38.8831 129.502 37.8848 130.007 36.9191Z" fill="#EDCD92"/>
<path d="M42.3718 48.4509C43.7441 48.0604 45.2778 48.5982 46.2433 49.6223C46.753 50.16 47.3047 50.8708 47.0803 51.6611C46.1498 53.2698 43.9475 53.9198 42.2713 53.1341C41.5372 52.6759 40.8966 51.8739 41.093 50.9527C41.2777 50.0501 41.5302 48.9559 42.3718 48.4509Z" fill="#EDCD92"/>
</svg>
